<?xml version="1.0" standalone="no"?><!DOCTYPE svg PUBLIC "-//W3C//DTD SVG 1.1//EN" "http://www.w3.org/Graphics/SVG/1.1/DTD/svg11.dtd"><svg t="1700531370891" class="icon" viewBox="0 0 1024 1024" version="1.1" xmlns="http://www.w3.org/2000/svg" p-id="1541" xmlns:xlink="http://www.w3.org/1999/xlink" width="200" height="200"><path d="M965.5 518.2c0 2.4 0 4.8-0.1 7.2-3.9 245.5-204 443.3-450.4 443.3-15.1 0-30.1-0.8-44.8-2.2C242.4 944 64.5 751.8 64.5 518.2 64.5 269.4 266.2 67.7 515 67.7s450.5 201.7 450.5 450.5z" fill="#FFDFD7" p-id="1542"></path><path d="M965.4 525.4c-3.9 245.5-204 443.3-450.4 443.3-15.1 0-30.1-0.8-44.8-2.2L262 742l449-363 254.4 146.4z" fill="#FAA27F" opacity=".69" p-id="1543"></path><path d="M524 301.7c-135.2 0-245 98.8-245 220.3 0 42.2 13 81.9 36.4 115l-53.9 105.3 114.4-44.8c40.9 27.9 92.3 44.8 148.2 44.8 135.2 0 245-98.8 245-220.3S659.2 301.7 524 301.7z" fill="#FC6648" p-id="1544"></path><path d="M546.5 515.5h-56c-3 0-3.1 4.7 0 4.7h61.1c0.9 0 1.7-0.5 2.1-1.4 2.2-1.7-13.8-17.5-14.2-19-1.9-2.3-5.5 0.7-3.6 3-0.1 0.2 10.6 12.7 10.6 12.7zM495.5 543.9h56c3 0 3.1-4.7 0-4.7h-61.1c-0.9 0-1.7 0.5-2.1 1.4-2.2 1.7 13.8 17.5 14.2 19 1.9 2.3 5.5-0.7 3.6-3 0-0.1-10.6-12.7-10.6-12.7z" fill="#FFFFFF" p-id="1545"></path></svg>