<?xml version="1.0" standalone="no"?><!DOCTYPE svg PUBLIC "-//W3C//DTD SVG 1.1//EN" "http://www.w3.org/Graphics/SVG/1.1/DTD/svg11.dtd"><svg t="1695176951047" class="icon" viewBox="0 0 1024 1024" version="1.1" xmlns="http://www.w3.org/2000/svg" p-id="10468" xmlns:xlink="http://www.w3.org/1999/xlink" width="128" height="128"><path d="M768 128H277.312a128 128 0 0 0-128 128v490.688a128 128 0 0 0 128 128H768a128 128 0 0 0 128-128V256a128 128 0 0 0-128-128zM277.312 213.312H768c23.552 0 42.688 19.136 42.688 42.688v490.688a42.688 42.688 0 0 1-42.688 42.624H277.312a42.688 42.688 0 0 1-42.624-42.624V256c0-23.552 19.072-42.688 42.624-42.688z" fill="#D0E0FE" p-id="10469"></path><path d="M874.688 448C921.792 448 960 486.208 960 533.312v341.376c0 47.104-38.208 85.312-85.312 85.312H533.312A85.312 85.312 0 0 1 448 874.688v-213.376h53.312a160 160 0 0 0 160-160V448h213.376zM512 85.312c47.104 0 85.312 38.208 85.312 85.376V512c0 47.104-38.208 85.312-85.312 85.312H170.688A85.312 85.312 0 0 1 85.312 512V170.688c0-47.168 38.208-85.376 85.376-85.376H512z" fill="#337EFF" p-id="10470"></path><path d="M359.488 501.312v-113.92h84.864v18.752H480V239.68H359.488v-58.368h-36.672v58.368H202.688v166.464h35.648v-18.752h84.48v113.92h36.672zM322.816 352.64h-84.48V274.56h84.48v78.08z m121.6 0H359.424V274.56h84.864v78.08zM737.664 597.312L832 832h-43.2l-22.464-58.88h-103.36l-22.4 58.88h-43.264l94.4-234.688h45.952z m-22.144 41.408h-1.344l-39.04 102.912h79.104L715.52 638.72z" fill="#D0E0FE" p-id="10471"></path></svg>